<?xml version="1.0" encoding="UTF-8"?><svg id="Layer_1" xmlns="http://www.w3.org/2000/svg" viewBox="0 0 1009.3945 120"><rect x="109.9168" y=".0999" width="40.0333" height="119.8003"/><polygon points="62.4958 .0999 0 120 42.5291 120 99.9334 .0999 62.4958 .0999"/><polygon points="199.9667 40.0333 199.9667 0 159.9335 0 199.9667 40.0333"/><path d="M179.9002,47.421c-11.0816,0-19.9667,8.985-19.9667,19.9667s8.985,19.9667,19.9667,19.9667,19.9667-8.985,19.9667-19.9667-8.985-19.9667-19.9667-19.9667Z"/><path d="M82.4625,79.8669c-11.0815,0-19.9667,8.985-19.9667,19.9667s8.985,19.9667,19.9667,19.9667,19.9667-8.985,19.9667-19.9667-8.985-19.9667-19.9667-19.9667Z"/><path d="M258.7023,25.5137l-28.5162,78.9463h20.0878l4.776-13.9069h29.2186l4.7761,13.9069h20.3687l-28.5162-78.9463h-22.1949ZM260.1071,75.6628l9.6926-28.9377,9.8332,28.9377h-19.5258Z"/><path d="M356.1912,50.3776c-1.9667-2.95-4.6357-5.3381-8.0071-7.0237s-6.0404-2.5285-11.2379-2.5285-9.8332,1.2642-14.0474,3.9333c-4.2142,2.669-7.5856,6.3213-9.9736,11.2379h-.1404c-2.3881,4.9165-3.6523,10.5355-3.6523,16.9973s1.2642,12.0807,3.6523,16.9974c2.5285,4.9166,5.7594,8.7094,9.9736,11.3784s9.5522,3.9333,14.0474,3.9333,8.288-.8428,11.6594-2.669c3.3713-1.8261,5.8999-4.2142,7.7261-7.1642v8.9904h19.2449V21.2994h-19.2449v29.0782ZM352.2579,84.2317c-2.669,2.8096-5.9,4.2142-9.6927,4.2142s-7.0236-1.4047-9.6927-4.2142c-2.669-2.8094-3.9332-6.6023-3.9332-11.3783s1.2642-8.5689,3.9332-11.2379,5.8999-4.0738,9.6927-4.0738,7.0237,1.4047,9.6927,4.2142v-.2809c2.6689,2.8095,3.9332,6.6023,3.9332,11.3784s-1.2642,8.5689-3.9332,11.3783Z"/><path d="M429.7995,50.3776c-1.9667-2.95-4.6357-5.3381-8.007-7.0237-3.3714-1.6857-6.0404-2.5285-11.238-2.5285s-9.8331,1.2642-14.0473,3.9333c-4.2142,2.669-7.5857,6.3213-9.9737,11.2379h-.1404c-2.3881,4.9165-3.6524,10.5355-3.6524,16.9973s1.2643,12.0807,3.6524,16.9974c2.5285,4.9166,5.7593,8.7094,9.9736,11.3784s9.5523,3.9333,14.0474,3.9333,8.2879-.8428,11.6594-2.669c3.3713-1.8261,5.8998-4.2142,7.726-7.1642v8.9904h19.2449V21.2994h-19.2449v29.0782ZM425.8661,84.2317c-2.6689,2.8096-5.8999,4.2142-9.6927,4.2142s-7.0237-1.4047-9.6926-4.2142c-2.669-2.8094-3.9333-6.6023-3.9333-11.3783s1.2643-8.5689,3.9333-11.2379c2.6689-2.6691,5.8999-4.0738,9.6926-4.0738s7.0237,1.4047,9.6927,4.2142v-.2809c2.669,2.8095,3.9333,6.6023,3.9333,11.3784s-1.2643,8.5689-3.9333,11.3783Z"/><rect x="460.0013" y="41.8087" width="19.2449" height="62.6513"/><path d="M469.6941,14.5567c-3.3714,0-6.1809.9833-8.288,2.9499-2.1071,1.9667-3.2308,4.6356-3.2308,7.4452s1.1238,5.338,3.2308,7.3046c2.1071,1.9666,5.0571,2.95,8.288,2.95s6.0403-.9833,8.1475-2.95c2.1071-1.9666,3.2308-4.3547,3.2308-7.3046s-1.1237-5.4785-3.2308-7.4452c-2.1072-1.9666-4.7761-2.9499-8.1475-2.9499Z"/><path d="M513.2409,86.9008c-.9833-.8429-1.4047-2.2476-1.4047-4.0738v-25.1448h12.6426v-16.014h-12.6426v-15.3116h-19.245v15.3116h-7.5856v16.014h7.5856v25.0043c0,7.7261,1.9667,13.345,5.9,16.7164,3.9333,3.3714,9.2712,5.0571,16.2949,5.0571h9.8332v-16.295h-6.8832c-2.1071,0-3.6523-.4214-4.4952-1.2642Z"/><path d="M542.319,14.5567c-3.3715,0-6.1808.9833-8.288,2.9499-2.1071,1.9667-3.2309,4.6356-3.2309,7.4452s1.1238,5.338,3.2309,7.3046,5.057,2.95,8.288,2.95,6.0403-.9833,8.1474-2.95c2.1072-1.9666,3.231-4.3547,3.231-7.3046s-1.1238-5.4785-3.231-7.4452c-2.1071-1.9666-4.7761-2.9499-8.1474-2.9499Z"/><rect x="532.6263" y="41.8087" width="19.245" height="62.6513"/><polygon points="603.8466 41.8087 590.2908 86.2488 576.7352 41.8087 556.226 41.8087 578.4208 104.46 602.1609 104.46 624.3558 41.8087 603.8466 41.8087"/><path d="M670.7119,44.6181c-4.6356-2.5286-9.8331-3.7928-16.1544-3.7928s-11.7998,1.2642-16.5759,3.9333c-4.9166,2.669-8.5688,6.3213-11.2379,11.2379-2.6689,4.9165-3.9333,10.5355-3.9333,17.1378s1.4048,12.2212,4.0738,17.1378c2.6691,4.9166,6.4618,8.5689,11.2379,11.2379s11.3784,3.9333,16.4355,3.9333,9.6926-.9833,13.7664-2.8095c4.0737-1.8262,7.5856-4.4951,10.2546-7.7261,2.6691-3.2308,4.6356-7.0236,5.619-11.0974h-20.5092c-1.8262,4.0738-5.1974,6.0403-9.9736,6.0403-3.2308,0-5.8999-.9833-8.1474-3.0904-2.2477-2.1071-3.5118-5.0571-3.7928-8.9904h43.6873c.281-1.9666.281.7025.281-5.619s-1.2643-11.7997-3.9333-16.5759c-2.6691-4.7761-6.3213-8.4285-11.0975-10.957ZM665.9359,67.0939h-24.0211c.562-3.5119,1.8263-6.1809,4.0738-8.007,2.2476-1.8262,4.7761-2.8095,8.1475-2.8095s6.1809.9833,8.4285,2.95c2.2476,1.9667,3.3713,4.6357,3.3713,7.8666h0Z"/><polygon points="736.5944 41.1062 768.7628 41.1062 768.7628 25.6541 768.7628 25.6541 717.3494 25.6541 717.3494 104.46 736.5944 104.46 736.5944 72.5724 760.6153 72.5724 760.6153 57.6822 736.5944 57.6822 736.5944 41.1062"/><path d="M817.0858,44.8991c-4.9166-2.6691-10.5355-3.9333-16.5759-3.9333s-11.6593,1.2642-16.5759,3.9333c-4.9166,2.5285-8.8498,6.3213-11.6593,11.2379-2.8094,4.9165-4.2142,10.395-4.2142,16.9973s1.4048,12.2213,4.2142,17.1378c2.7625,4.8342,6.4814,8.4406,11.2786,11.0974h-.0408c4.9166,2.669,10.395,3.9333,16.5759,3.9333s11.7998-1.2643,16.7164-3.9333c4.9166-2.5285,8.8499-6.3213,11.7999-11.2379,2.9499-4.9166,4.3546-10.5355,4.3546-16.9973s-1.4047-12.0807-4.2142-16.9973c-2.8094-4.9166-6.7427-8.569-11.6593-11.2379ZM809.7813,84.6531h.1404c-2.669,2.669-5.7595,4.0738-9.4117,4.0738s-6.7427-1.4048-9.1308-4.0738c-2.3879-2.669-3.6523-6.4618-3.6523-11.5189s1.1237-8.9903,3.6523-11.6593c2.388-2.6691,5.619-3.9333,9.2712-3.9333s6.7429,1.4047,9.2712,4.0738c2.5286,2.669,3.7929,6.6022,3.7929,11.5188s-1.4048,8.8499-3.9333,11.5189h0Z"/><path d="M867.7969,44.0562c-3.3713,1.9666-6.1809,4.6356-8.4284,8.1475v-10.3951h-19.245v62.6513h19.245v-29.0781c0-5.1976,1.2642-8.7094,3.6523-10.8165,2.388-2.1071,6.0404-3.0904,10.8165-3.0904h5.338v-20.3688c-4.0738,0-7.8665.9833-11.238,2.95h-.1404Z"/><path d="M912.6082,57.2607c4.9166,0,8.2878,2.388,9.9736,7.1641h20.5092c-1.6858-7.445-5.0571-13.345-10.3951-17.4187-5.1976-4.0738-13.626-6.1808-19.6663-6.1808s-11.5187,1.2642-16.295,3.9333c-4.7761,2.669-8.4284,6.3213-11.0974,11.2379-2.6689,4.9166-3.9333,10.5356-3.9333,17.1378s1.2643,12.2213,3.9333,17.1378c2.669,4.9166,6.3213,8.5689,11.0974,11.2379,4.6356,2.669,8.5689,3.9333,16.295,3.9333s14.3284-2.1071,19.6663-6.3213c5.1976-4.2142,8.7094-9.9737,10.3951-17.2783h-20.5092c-1.6857,4.7761-6.4618,7.1641-9.9736,7.1641s-6.3214-1.4047-8.4284-4.0737c-2.1071-2.8095-3.0905-6.6023-3.0905-11.7999s.9833-9.1308,3.0905-11.7997c2.1071-2.669,3.5118-4.0738,8.4284-4.0738Z"/><path d="M1005.4612,55.5751c-2.6689-4.7761-6.3213-8.4285-11.0974-10.957-4.6357-2.5286-9.8332-3.7928-16.1545-3.7928s-11.7998,1.2642-16.5759,3.9333c-4.9166,2.669-8.5689,6.3213-11.238,11.2379-2.6689,4.9165-3.9332,10.5355-3.9332,17.1378s1.4047,12.2212,4.0737,17.1378c2.6691,4.9166,6.4619,8.5689,11.2379,11.2379,4.7761,2.669,11.3785,3.9333,16.4355,3.9333s9.6927-.9833,13.7665-2.8095c4.0737-1.8262,7.5854-4.4951,10.2545-7.7261,2.6691-3.2308,4.6356-7.0236,5.619-11.0974h-20.5092c-1.8262,4.0738-5.1974,6.0403-9.9736,6.0403-3.2308,0-5.8999-.9833-8.1474-3.0904-2.2477-2.1071-3.5118-5.0571-3.7928-8.9904h43.6873c.281-1.9666.281.7025.281-5.619s-1.2643-11.7997-3.9333-16.5759ZM989.728,67.0939h-24.0209c.562-3.5119,1.8262-6.1809,4.0738-8.007,2.2475-1.8262,4.7761-2.8095,8.1474-2.8095s6.181.9833,8.4285,2.95c2.2477,1.9667,3.3715,4.6357,3.3715,7.8666h-.0002Z"/></svg>